<?xml version="1.0" encoding="UTF-8" standalone="no"?>
<svg
   xmlns:dc="http://purl.org/dc/elements/1.1/"
   xmlns:cc="http://creativecommons.org/ns#"
   xmlns:rdf="http://www.w3.org/1999/02/22-rdf-syntax-ns#"
   xmlns:svg="http://www.w3.org/2000/svg"
   xmlns="http://www.w3.org/2000/svg"
   xmlns:sodipodi="http://sodipodi.sourceforge.net/DTD/sodipodi-0.dtd"
   xmlns:inkscape="http://www.inkscape.org/namespaces/inkscape"
   width="7.8641691mm"
   height="7.1413002mm"
   viewBox="0 0 7.8641691 7.1413002"
   version="1.1"
   id="svg8"
   inkscape:version="1.0.2-2 (e86c870879, 2021-01-15)"
   sodipodi:docname="logo_globo.svg">
  <defs
     id="defs2">
    <clipPath
       clipPathUnits="userSpaceOnUse"
       id="clipPath883">
      <rect
         style="fill:none;stroke:#000000;stroke-width:0.125099;stroke-opacity:1"
         id="rect885"
         width="31.163181"
         height="36.121262"
         x="-1.4403375"
         y="-4.0660515"
         clip-path="none" />
    </clipPath>
  </defs>
  <sodipodi:namedview
     id="base"
     pagecolor="#ffffff"
     bordercolor="#666666"
     borderopacity="1.0"
     inkscape:pageopacity="0.0"
     inkscape:pageshadow="2"
     inkscape:zoom="3.959798"
     inkscape:cx="-4.5502034"
     inkscape:cy="46.357016"
     inkscape:document-units="mm"
     inkscape:current-layer="layer1"
     inkscape:document-rotation="0"
     showgrid="false"
     fit-margin-top="0"
     fit-margin-left="0"
     fit-margin-right="0"
     fit-margin-bottom="0"
     inkscape:window-width="1512"
     inkscape:window-height="1032"
     inkscape:window-x="208"
     inkscape:window-y="0"
     inkscape:window-maximized="0" />
  <metadata
     id="metadata5">
    <rdf:RDF>
      <cc:Work
         rdf:about="">
        <dc:format>image/svg+xml</dc:format>
        <dc:type
           rdf:resource="http://purl.org/dc/dcmitype/StillImage" />
        <dc:title></dc:title>
      </cc:Work>
    </rdf:RDF>
  </metadata>
  <g
     inkscape:label="Layer 1"
     inkscape:groupmode="layer"
     id="layer1"
     transform="translate(-78.748738,-114.69612)">
    <g
       style="fill:none"
       id="g847"
       transform="matrix(0.26458333,0,0,0.26458333,79.21646,114.5626)"
       clip-path="url(#clipPath883)">
      <path
         fill-rule="evenodd"
         clip-rule="evenodd"
         d="M 12.5243,0.518775 C 10.8164,0.685242 9.43645,1.02947 8.09226,1.62437 7.10359,2.06188 5.91875,2.74922 5.63794,3.04812 5.35856,3.34549 5.54213,3.83176 5.95821,3.89671 6.11687,3.92145 6.21406,3.87729 6.72043,3.55032 7.40043,3.11117 8.45527,2.58196 9.20028,2.30607 9.73255,2.10894 11.0449,1.75454 11.2425,1.75454 c 0.1048,0 0.105,0.00274 0.0102,0.14509 -0.8546,1.28256 -1.45483,2.8692 -1.94351,5.13731 L 9.2226,7.43879 8.86956,7.5259 C 8.09754,7.71637 7.51245,8.26848 7.25539,9.04901 7.227,9.13527 7.05505,9.14134 4.63793,9.14134 3.21507,9.14134 2.05091,9.1262 2.05091,9.10762 2.05091,9.01323 2.66196,7.84068 2.92693,7.42655 3.30519,6.8355 3.33104,6.63035 3.05789,6.38633 2.90657,6.25109 2.84958,6.23157 2.67452,6.25505 2.40321,6.29146 2.36248,6.33082 2.0164,6.89026 -0.768105,11.3917 -0.660943,17.1322 2.28966,21.5305 l 0.22446,0.3346 -0.15518,0.3008 c -0.21416,0.4152 -0.29357,0.9119 -0.21717,1.3579 0.25495,1.4883 1.85683,2.3 3.18614,1.6144 l 0.29858,-0.154 0.46785,0.3032 c 2.14481,1.39 4.40236,2.1038 6.95306,2.1987 4.7079,0.1751 9.1484,-2.1374 11.7785,-6.1339 1.493,-2.2686 2.2673,-5.0619 2.1651,-7.8097 C 26.8962,10.9917 26.1823,8.73422 24.7923,6.58941 L 24.4891,6.12156 24.6431,5.82298 C 24.8562,5.40984 24.9354,4.91255 24.8591,4.46723 24.604,2.97768 23.0023,2.1673 21.6708,2.85401 L 21.37,3.00918 21.0354,2.78473 C 19.3563,1.6583 17.4693,0.933914 15.3999,0.621241 14.8744,0.541833 12.9802,0.474349 12.5243,0.518775 Z m 1.438,1.154765 c 1.1577,0.53898 2.3151,3.15602 2.8594,6.46531 0.0596,0.36274 0.1214,0.73693 0.1373,0.83149 L 16.9878,9.14229 14.2627,9.12862 11.5376,9.11496 11.4412,8.86101 C 11.2617,8.38789 10.9285,8.03137 10.2873,7.62641 10.2562,7.60684 10.4224,6.84046 10.6339,6.02833 c 0.6956,-2.67265 1.8535,-4.48379 2.8666,-4.48379 0.1015,0 0.3094,0.05804 0.4618,0.129 z m 2.6068,0.25907 c 0.3871,0.09793 0.9413,0.26598 1.2315,0.37346 1.2034,0.44563 2.9239,1.41135 2.8504,1.59992 -0.1279,0.32808 -0.1961,0.7562 -0.1701,1.06713 0.1285,1.53593 1.6383,2.44525 3.1085,1.87214 0.0708,-0.02765 0.1562,0.06569 0.3948,0.43133 0.2882,0.44158 0.9658,1.71691 0.9658,1.81779 0,0.02696 -1.4687,0.04696 -3.4458,0.04696 H 18.0583 L 17.914,8.25756 C 17.4938,5.68363 16.7967,3.53555 15.9577,2.2294 15.8365,2.04077 15.7194,1.85679 15.6975,1.82049 15.6347,1.71681 15.8003,1.73813 16.5691,1.93261 Z m 6.6461,1.86881 C 24.0757,4.25096 24.0255,5.46767 23.1297,5.87685 22.3619,6.22756 21.4504,5.56206 21.5322,4.71052 21.5878,4.1315 22.1071,3.654 22.6812,3.654 c 0.1731,0 0.34,0.04606 0.534,0.14742 z M 3.86595,4.57207 c -0.19738,0.19739 -0.22672,0.36744 -0.1042,0.6044 0.18161,0.35114 0.72327,0.35114 0.90488,0 C 4.80666,4.90564 4.72135,4.59766 4.47035,4.46787 4.2334,4.34535 4.06334,4.37469 3.86595,4.57207 Z M 9.89628,8.64183 C 10.4481,8.91683 10.6942,9.57621 10.447,10.1175 10.0358,11.0176 8.82287,11.0633 8.36695,10.1958 8.23884,9.95199 8.21815,9.85923 8.23578,9.60708 8.29461,8.76546 9.14836,8.26917 9.89628,8.64183 Z M 7.25539,10.2889 c 0.19079,0.5794 0.63505,1.1079 1.13736,1.3533 l 0.30048,0.1468 -0.03018,1.4594 c -0.02701,1.3052 0.01061,2.5518 0.12326,4.0844 l 0.03392,0.4617 H 5.22861 1.63699 L 1.58148,17.623 C 1.46609,17.2665 1.26168,16.3439 1.17188,15.7742 1.10218,15.3317 1.07907,14.877 1.08013,13.9691 1.08187,12.5275 1.18444,11.7756 1.55705,10.4736 l 0.07925,-0.277 h 2.79432 c 2.61456,0 2.79633,0.006 2.82477,0.0923 z M 17.113,10.2626 c 0.1092,0.3367 0.2192,3.7308 0.1622,5.0064 l -0.0393,0.8777 -0.1742,0.0283 c -0.3195,0.0519 -0.7587,0.3108 -1.0564,0.623 -0.263,0.2756 -0.5508,0.7607 -0.5521,0.9305 -8e-4,0.0966 -5.53402,0.0966 -5.56531,0 C 9.77877,17.3922 9.66871,13.998 9.72564,12.7247 l 0.0391,-0.8752 0.25756,-0.066 c 0.3252,-0.0833 0.821,-0.4014 1.0427,-0.669 0.1534,-0.185 0.3689,-0.581 0.4495,-0.8256 0.0285,-0.0863 0.2092,-0.0923 2.8038,-0.0923 2.1721,0 2.778,0.0143 2.7947,0.066 z m 8.3064,0.1055 c 0.1161,0.3586 0.32,1.2802 0.4089,1.8487 0.131,0.8362 0.1313,2.6854 8e-4,3.5199 -0.0971,0.6208 -0.241,1.288 -0.3841,1.7807 l -0.0804,0.2771 H 22.5573 19.75 L 19.5988,17.4476 C 19.4073,17.0078 19.03,16.5934 18.6241,16.3771 l -0.3166,-0.1687 0.0303,-1.4626 c 0.0271,-1.3085 -0.0104,-2.5537 -0.1232,-4.0875 l -0.0339,-0.4617 h 3.5916 3.5916 z m -7.3252,6.9383 c 0.1875,0.095 0.3409,0.224 0.4448,0.3739 0.1433,0.2067 0.1586,0.2686 0.1586,0.6418 0,0.3732 -0.0153,0.4351 -0.1586,0.6418 -0.1855,0.2675 -0.6315,0.5191 -0.9193,0.5186 -0.667,-0.001 -1.1852,-0.5083 -1.1852,-1.1604 0,-0.8737 0.879,-1.4116 1.6597,-1.0157 z m -9.00731,2.4271 c 0.42855,2.625 1.12851,4.7561 2.00611,6.1073 0.1986,0.3057 0.2243,0.372 0.1493,0.3845 C 11.0998,26.2492 9.78273,25.9007 9.20028,25.685 7.99687,25.2394 6.27643,24.2736 6.34993,24.0851 6.47782,23.757 6.54605,23.3289 6.52003,23.0179 6.3915,21.482 4.88169,20.5727 3.41156,21.1458 3.34075,21.1734 3.25533,21.0801 3.01668,20.7145 2.72849,20.2729 2.05091,18.9976 2.05091,18.8967 c 0,-0.027 1.46866,-0.047 3.44584,-0.047 h 3.44584 z m 6.36631,-0.8178 c 3e-4,0.0363 0.0588,0.1911 0.13,0.3441 0.16,0.3436 0.5855,0.8016 0.8998,0.9683 0.1298,0.0688 0.236,0.1524 0.236,0.1856 0,0.1217 -0.3206,1.4679 -0.4798,2.0148 -0.5934,2.0378 -1.4518,3.5048 -2.2751,3.8882 -0.3516,0.1636 -0.5753,0.1638 -0.9255,8e-4 -1.159,-0.5396 -2.2727,-3.0564 -2.861,-6.4653 -0.0877,-0.5078 -0.1594,-0.9411 -0.1594,-0.9629 -10e-5,-0.0218 1.2227,-0.0396 2.7172,-0.0396 2.1384,0 2.7174,0.014 2.7178,0.066 z M 24.95,18.8842 c 0,0.0705 -0.6244,1.2736 -0.8454,1.6287 -0.9822,1.5787 -2.508,3.1046 -4.0868,4.0868 -0.5532,0.3442 -1.5175,0.8158 -2.1668,1.0599 -0.5756,0.2163 -1.882,0.5769 -2.0901,0.5769 -0.1075,0 -0.1077,-0.0024 -0.0126,-0.1451 0.8466,-1.2707 1.4728,-2.9249 1.9441,-5.1362 l 0.0854,-0.4008 0.328,-0.0911 c 0.7061,-0.1964 1.2147,-0.6279 1.493,-1.2667 L 19.75,18.8497 h 2.6 c 1.43,0 2.6,0.0155 2.6,0.0345 z M 4.85368,22.1629 c 0.88314,0.4614 0.79508,1.7414 -0.14447,2.1002 -0.75287,0.2875 -1.59513,-0.3412 -1.53867,-1.1487 0.04274,-0.6112 0.55274,-1.0989 1.14918,-1.0989 0.17311,0 0.33995,0.046 0.53396,0.1474 z"
         fill="#8e2424"
         id="path833" />
      <path
         d="m 47.8097,14.4545 c 0,1.3978 -0.2557,2.5995 -0.7671,3.6052 -0.5113,1.0014 -1.2123,1.7727 -2.103,2.3139 -0.8863,0.5369 -1.8941,0.8054 -3.0234,0.8054 -1.1335,0 -2.1456,-0.2685 -3.0362,-0.8054 -0.8864,-0.5412 -1.5853,-1.3147 -2.0966,-2.3203 -0.5114,-1.0057 -0.7671,-2.2053 -0.7671,-3.5988 0,-1.3977 0.2557,-2.5973 0.7671,-3.5987 0.5113,-1.00566 1.2102,-1.77697 2.0966,-2.3139 0.8906,-0.54119 1.9027,-0.81179 3.0362,-0.81179 1.1293,0 2.1371,0.2706 3.0234,0.81179 0.8907,0.53693 1.5917,1.30824 2.103,2.3139 0.5114,1.0014 0.7671,2.201 0.7671,3.5987 z m -1.956,0 c 0,-1.0653 -0.1726,-1.9623 -0.5178,-2.691 -0.3409,-0.733 -0.8096,-1.2869 -1.4062,-1.6619 -0.5923,-0.3793 -1.2635,-0.56893 -2.0135,-0.56893 -0.7543,0 -1.4276,0.18963 -2.0199,0.56893 -0.5923,0.375 -1.0611,0.9289 -1.4062,1.6619 -0.341,0.7287 -0.5114,1.6257 -0.5114,2.691 0,1.0654 0.1704,1.9645 0.5114,2.6975 0.3451,0.7287 0.8139,1.2827 1.4062,1.6619 0.5923,0.375 1.2656,0.5625 2.0199,0.5625 0.75,0 1.4212,-0.1875 2.0135,-0.5625 0.5966,-0.3792 1.0653,-0.9332 1.4062,-1.6619 0.3452,-0.733 0.5178,-1.6321 0.5178,-2.6975 z m 4.2651,10.2273 v -13.5 h 1.8665 v 1.5916 h 0.1598 c 0.1108,-0.2045 0.2706,-0.441 0.4794,-0.7095 0.2088,-0.2684 0.4985,-0.5028 0.8693,-0.7031 0.3707,-0.2046 0.8608,-0.3068 1.4702,-0.3068 0.7926,0 1.5,0.2003 2.1221,0.6008 0.6222,0.4006 1.1101,0.978 1.4638,1.7323 0.3579,0.7542 0.5369,1.6619 0.5369,2.723 0,1.0611 -0.1768,1.9709 -0.5305,2.7294 -0.3537,0.7542 -0.8395,1.3359 -1.4574,1.745 -0.6179,0.4048 -1.3232,0.6073 -2.1158,0.6073 -0.5966,0 -1.0845,-0.1002 -1.4637,-0.3005 -0.375,-0.2002 -0.6691,-0.4346 -0.8821,-0.7031 -0.2131,-0.2685 -0.3772,-0.5071 -0.4922,-0.7159 H 52.03 v 5.2095 z m 1.8729,-8.5909 c 0,0.6903 0.1001,1.2955 0.3004,1.8153 0.2003,0.5199 0.49,0.9269 0.8693,1.2209 0.3793,0.2898 0.8437,0.4347 1.3935,0.4347 0.571,0 1.0483,-0.1513 1.4318,-0.4538 0.3835,-0.3069 0.6733,-0.7223 0.8693,-1.2465 0.2003,-0.5241 0.3004,-1.1143 0.3004,-1.7706 0,-0.6477 -0.098,-1.2294 -0.294,-1.745 -0.1918,-0.5156 -0.4815,-0.9226 -0.8693,-1.2209 -0.3835,-0.2983 -0.863,-0.4474 -1.4382,-0.4474 -0.554,0 -1.0228,0.1427 -1.4063,0.4282 -0.3792,0.2855 -0.6669,0.684 -0.8629,1.1953 -0.196,0.5114 -0.294,1.108 -0.294,1.7898 z m 13.8196,-4.9091 v 1.5341 h -5.363 V 11.1818 Z M 61.8865,8.82955 h 1.9113 v 9.28765 c 0,0.3707 0.0554,0.6498 0.1662,0.8373 0.1108,0.1833 0.2535,0.309 0.4282,0.3772 0.179,0.0639 0.3729,0.0959 0.5817,0.0959 0.1534,0 0.2876,-0.0107 0.4027,-0.032 0.1151,-0.0213 0.2045,-0.0384 0.2685,-0.0511 l 0.3451,1.5788 c -0.1108,0.0426 -0.2684,0.0852 -0.473,0.1278 -0.2045,0.0469 -0.4602,0.0725 -0.767,0.0767 -0.5029,0.0086 -0.9716,-0.0809 -1.4063,-0.2684 -0.4346,-0.1875 -0.7862,-0.4773 -1.0547,-0.8693 -0.2684,-0.3921 -0.4027,-0.8843 -0.4027,-1.4766 z M 67.9254,21 v -9.8182 h 1.9112 V 21 Z M 68.8906,9.6669 c -0.3324,0 -0.6179,-0.11079 -0.8565,-0.33238 -0.2344,-0.22586 -0.3516,-0.49432 -0.3516,-0.8054 0,-0.31534 0.1172,-0.58381 0.3516,-0.8054 0.2386,-0.22585 0.5241,-0.33878 0.8565,-0.33878 0.3324,0 0.6158,0.11293 0.8502,0.33878 0.2386,0.22159 0.3579,0.49006 0.3579,0.8054 0,0.31108 -0.1193,0.57954 -0.3579,0.8054 C 69.5064,9.55611 69.223,9.6669 68.8906,9.6669 Z M 72.4078,21 v -9.8182 h 1.8346 v 1.598 h 0.1214 c 0.2046,-0.5412 0.5391,-0.963 1.0036,-1.2656 0.4645,-0.3068 1.0206,-0.4602 1.6683,-0.4602 0.6562,0 1.206,0.1534 1.6491,0.4602 0.4475,0.3068 0.7777,0.7287 0.9908,1.2656 h 0.1023 c 0.2344,-0.5241 0.6072,-0.9417 1.1186,-1.2528 0.5113,-0.3154 1.1207,-0.473 1.8281,-0.473 0.8906,0 1.6172,0.2791 2.1797,0.8373 0.5668,0.5583 0.8501,1.3999 0.8501,2.5249 V 21 h -1.9112 v -6.4048 c 0,-0.6648 -0.1811,-1.1463 -0.5433,-1.4446 -0.3622,-0.2983 -0.7948,-0.4475 -1.2976,-0.4475 -0.6222,0 -1.1058,0.1918 -1.451,0.5753 -0.3452,0.3793 -0.5177,0.8672 -0.5177,1.4638 V 21 h -1.9049 v -6.5263 c 0,-0.5326 -0.1662,-0.9609 -0.4986,-1.2848 -0.3323,-0.3238 -0.7649,-0.4858 -1.2975,-0.4858 -0.3623,0 -0.6968,0.0959 -1.0036,0.2877 -0.3025,0.1875 -0.5476,0.4495 -0.7351,0.7862 -0.1832,0.3366 -0.2748,0.7266 -0.2748,1.1697 V 21 Z m 22.1277,-4.0717 v -5.7465 h 1.9176 V 21 h -1.8792 v -1.7003 h -0.1023 c -0.2259,0.5242 -0.5881,0.961 -1.0867,1.3104 -0.4943,0.3452 -1.11,0.5177 -1.8473,0.5177 -0.6306,0 -1.1889,-0.1385 -1.6747,-0.4154 -0.4815,-0.2813 -0.8608,-0.6968 -1.1378,-1.2465 -0.2727,-0.5497 -0.409,-1.2294 -0.409,-2.0391 v -6.245 h 1.9112 v 6.0149 c 0,0.6691 0.1853,1.2017 0.5561,1.598 0.3707,0.3964 0.8523,0.5945 1.4446,0.5945 0.3579,0 0.7138,-0.0895 1.0675,-0.2685 0.3579,-0.1789 0.6541,-0.4495 0.8884,-0.8118 0.2387,-0.3622 0.3559,-0.8224 0.3516,-1.3806 z m 11.8425,-3.3495 -1.732,0.3069 c -0.072,-0.2216 -0.187,-0.4326 -0.345,-0.6329 -0.153,-0.2002 -0.362,-0.3643 -0.626,-0.4921 -0.265,-0.1279 -0.595,-0.1918 -0.991,-0.1918 -0.541,0 -0.993,0.1214 -1.355,0.3643 -0.363,0.2387 -0.544,0.5476 -0.544,0.9269 0,0.3281 0.122,0.5923 0.365,0.7926 0.243,0.2003 0.635,0.3643 1.176,0.4922 l 1.559,0.3579 c 0.904,0.2088 1.577,0.5306 2.02,0.9652 0.444,0.4347 0.665,0.9993 0.665,1.6939 0,0.5881 -0.17,1.1122 -0.511,1.5725 -0.337,0.4559 -0.808,0.8139 -1.413,1.0738 -0.601,0.26 -1.297,0.39 -2.09,0.39 -1.1,0 -1.997,-0.2344 -2.6911,-0.7032 -0.6946,-0.473 -1.1208,-1.1441 -1.2784,-2.0135 l 1.8475,-0.2812 c 0.115,0.4815 0.351,0.8459 0.709,1.093 0.358,0.2429 0.825,0.3644 1.4,0.3644 0.627,0 1.127,-0.13 1.502,-0.3899 0.375,-0.2642 0.563,-0.586 0.563,-0.9652 0,-0.3069 -0.115,-0.5647 -0.345,-0.7735 -0.226,-0.2088 -0.574,-0.3665 -1.042,-0.473 l -1.662,-0.3643 c -0.916,-0.2088 -1.594,-0.5412 -2.0329,-0.9972 -0.4347,-0.456 -0.652,-1.0334 -0.652,-1.7322 0,-0.5796 0.1619,-1.0867 0.4858,-1.5213 0.3239,-0.4347 0.7711,-0.7735 1.3421,-1.0164 0.571,-0.2471 1.225,-0.3707 1.963,-0.3707 1.061,0 1.896,0.2301 2.505,0.6903 0.61,0.456 1.012,1.0675 1.208,1.8345 z m 0.465,-3.96942 V 7.90909 h 10.132 V 9.60938 H 112.89 V 21 h -1.968 V 9.60938 Z m 15.025,11.58882 c -0.967,0 -1.801,-0.2067 -2.499,-0.6201 -0.695,-0.4176 -1.232,-1.0035 -1.611,-1.7578 -0.375,-0.7585 -0.563,-1.647 -0.563,-2.6655 0,-1.0057 0.188,-1.892 0.563,-2.6591 0.379,-0.767 0.907,-1.3657 1.585,-1.7961 0.682,-0.4304 1.479,-0.6456 2.391,-0.6456 0.554,0 1.091,0.0916 1.61,0.2748 0.52,0.1833 0.987,0.4709 1.4,0.863 0.414,0.392 0.74,0.9012 0.978,1.5277 0.239,0.6221 0.358,1.3785 0.358,2.2691 v 0.6776 h -7.804 v -1.4318 h 5.931 c 0,-0.5029 -0.102,-0.9482 -0.306,-1.336 -0.205,-0.392 -0.493,-0.701 -0.863,-0.9268 -0.367,-0.2259 -0.797,-0.3388 -1.292,-0.3388 -0.536,0 -1.005,0.1321 -1.406,0.3963 -0.396,0.26 -0.703,0.6009 -0.92,1.0227 -0.213,0.4177 -0.32,0.8715 -0.32,1.3616 v 1.1186 c 0,0.6562 0.115,1.2144 0.345,1.6747 0.235,0.4602 0.561,0.8118 0.978,1.0547 0.418,0.2386 0.906,0.3579 1.464,0.3579 0.362,0 0.693,-0.0511 0.991,-0.1534 0.298,-0.1065 0.556,-0.2642 0.773,-0.473 0.218,-0.2088 0.384,-0.4666 0.499,-0.7734 l 1.809,0.326 c -0.145,0.5326 -0.405,0.9992 -0.78,1.3998 -0.371,0.3963 -0.837,0.7053 -1.4,0.9269 -0.558,0.2173 -1.195,0.326 -1.911,0.326 z m 10.468,0 c -0.95,0 -1.768,-0.2152 -2.454,-0.6456 -0.682,-0.4347 -1.206,-1.0334 -1.573,-1.7962 -0.366,-0.7628 -0.549,-1.6364 -0.549,-2.6207 0,-0.9972 0.187,-1.8772 0.562,-2.64 0.375,-0.767 0.904,-1.3657 1.585,-1.7961 0.682,-0.4304 1.486,-0.6456 2.41,-0.6456 0.746,0 1.411,0.1385 1.995,0.4155 0.583,0.2727 1.054,0.6562 1.412,1.1505 0.362,0.4943 0.578,1.0718 0.646,1.7323 h -1.86 c -0.103,-0.4603 -0.337,-0.8566 -0.703,-1.1889 -0.363,-0.3324 -0.848,-0.4986 -1.458,-0.4986 -0.532,0 -0.999,0.1406 -1.4,0.4218 -0.396,0.277 -0.705,0.6733 -0.926,1.189 -0.222,0.5113 -0.333,1.1164 -0.333,1.8153 0,0.7159 0.109,1.3338 0.326,1.8537 0.217,0.5199 0.524,0.9226 0.921,1.2081 0.4,0.2855 0.871,0.4283 1.412,0.4283 0.362,0 0.691,-0.0661 0.985,-0.1982 0.298,-0.1364 0.547,-0.3302 0.747,-0.5817 0.205,-0.2514 0.348,-0.5539 0.429,-0.9076 h 1.86 c -0.068,0.6349 -0.275,1.2017 -0.62,1.7003 -0.345,0.4985 -0.808,0.8906 -1.387,1.1761 -0.576,0.2855 -1.251,0.4283 -2.027,0.4283 z m 7.989,-6.0277 V 21 h -1.911 V 7.90909 h 1.885 v 4.87071 h 0.122 c 0.23,-0.5284 0.581,-0.9481 1.054,-1.2592 0.474,-0.3111 1.091,-0.4666 1.854,-0.4666 0.673,0 1.262,0.1385 1.764,0.4155 0.507,0.2769 0.9,0.6903 1.177,1.24 0.281,0.5455 0.421,1.2273 0.421,2.0455 V 21 h -1.911 v -6.0149 c 0,-0.7202 -0.185,-1.2784 -0.556,-1.6747 -0.371,-0.4006 -0.886,-0.6009 -1.547,-0.6009 -0.452,0 -0.856,0.0959 -1.214,0.2877 -0.354,0.1917 -0.633,0.473 -0.838,0.8437 -0.2,0.3665 -0.3,0.8097 -0.3,1.3296 z"
         fill="#3a404e"
         id="path835" />
    </g>
  </g>
</svg>
